# File created by Blade
# Date/Time:  Tue Sep 23 19:06:47 2014
# Frame Rate: 120.000 fps
#------------------------------------------------------
:FULLY-SPECIFIED
:DEGREES
662
root 2.406849 34.931552 -5.221125 54.186625 -8.522830 -48.411558
Spine -48.173516 30.785626 9.715895
Head -1.832181 -3.454211 19.315711
LeftShoulder -18.798430 17.472783 39.573120
LeftArm 39.953804 -78.767223 8.512152
LeftForeArm 99.133722 -0.000000 11.851843
LeftHand -16.112334 -0.000000 62.413358
LeftHandThumb1 -26.253704 0.000000 33.147579
RightShoulder -10.000560 -7.727894 -19.736631
RightArm 114.172229 39.251034 150.115847
RightForeArm 48.679599 -0.000000 62.977401
RightHand -0.620948 -0.000000 25.184517
RightHandThumb1 -24.326973 -0.000000 -32.862282
LeftUpLeg -42.050050 36.336329 27.869826
LeftLeg 15.056876 -0.000000 -0.000000
LeftFoot 0.915565 35.367392 16.915894
LeftToeBase -0.216750 -0.000000 0.000000
RightUpLeg -182.828520 -39.070178 56.711654
RightLeg -6.916945 -0.000000 0.000000
RightFoot 29.396641 -23.313317 18.068247
RightToeBase 33.616678 -0.000000 -0.000000
663
root 2.376490 34.922484 -5.229080 54.306456 -8.572820 -48.542621
Spine -48.129663 30.762131 9.825051
Head -1.787371 -3.224168 19.714127
LeftShoulder -18.793130 17.568933 39.538722
LeftArm 39.139483 -79.036803 9.481214
LeftForeArm 99.156162 -0.000000 11.863355
LeftHand -15.880123 0.000000 62.227104
LeftHandThumb1 -26.253704 0.000000 33.147579
RightShoulder -9.976187 -7.687462 -19.749842
RightArm 114.140046 39.183792 150.073148
RightForeArm 48.591737 0.000000 63.051221
RightHand -0.684985 -0.000000 25.192352
RightHandThumb1 -24.326973 -0.000000 -32.862282
LeftUpLeg -42.083579 36.641750 27.773333
LeftLeg 14.870823 -0.000000 -0.000000
LeftFoot 1.037700 35.498025 17.199336
LeftToeBase -0.160765 -0.000000 0.000000
RightUpLeg -182.809634 -39.165090 56.767256
RightLeg -7.036889 -0.000000 0.000000
RightFoot 29.437264 -23.350454 18.120318
RightToeBase 33.603182 -0.000000 -0.000000
664
root 2.349747 34.917214 -5.241120 54.427367 -8.610829 -48.718703
Spine -48.074347 30.752658 9.963849
Head -1.728474 -2.995440 20.233626
LeftShoulder -19.127821 16.657802 39.874625
LeftArm 43.818527 -78.488017 5.065068
LeftForeArm 99.427362 0.000000 11.831960
LeftHand -16.246030 0.000000 62.212182
LeftHandThumb1 -26.253704 0.000000 33.147579
RightShoulder -9.960156 -7.589211 -19.693270
RightArm 114.076991 39.202882 149.899658
RightForeArm 48.580888 -0.000000 63.015895
RightHand -0.706110 -0.000000 25.230071
RightHandThumb1 -24.326973 -0.000000 -32.862282
LeftUpLeg -42.026140 36.869629 27.839194
LeftLeg 14.694571 -0.000000 -0.000000
LeftFoot 1.118049 35.650553 17.386163
LeftToeBase -0.054059 -0.000000 0.000000
RightUpLeg -182.733017 -39.187827 56.812012
RightLeg -7.082418 -0.000000 0.000000
RightFoot 29.269763 -23.368910 18.302083
RightToeBase 33.697298 -0.000000 -0.000000
665
root 2.319299 34.911102 -5.257003 54.547287 -8.684597 -48.915225
Spine -47.988389 30.755214 10.105800
Head -1.672211 -2.753854 20.768658
LeftShoulder -19.347430 16.068758 40.147584
LeftArm 47.175320 -78.247962 1.842077
LeftForeArm 99.638523 -0.000000 11.938911
LeftHand -16.172636 -0.000000 62.028962
LeftHandThumb1 -26.253704 0.000000 33.147579
RightShoulder -9.958737 -7.432873 -19.660353
RightArm 113.927458 39.203493 149.723704
RightForeArm 48.514141 -0.000000 62.946255
RightHand -0.668958 -0.000000 25.220497
RightHandThumb1 -24.326973 -0.000000 -32.862282
LeftUpLeg -41.899187 37.070097 27.993878
LeftLeg 14.559136 -0.000000 -0.000000
LeftFoot 1.190868 35.817349 17.558247
LeftToeBase 0.054727 -0.000000 -0.000000
RightUpLeg -182.613553 -39.212016 56.805347
RightLeg -7.117743 -0.000000 0.000000
RightFoot 29.184733 -23.452246 18.455494
RightToeBase 33.633781 -0.000000 -0.000000
666
root 2.288726 34.903373 -5.276865 54.698674 -8.719596 -49.054271
Spine -47.926931 30.698913 10.264508
Head -1.618371 -2.532715 21.206020
LeftShoulder -19.216735 16.295252 40.139393
LeftArm 45.691131 -78.652717 3.353237
LeftForeArm 99.615353 -0.000000 12.060903
LeftHand -16.185906 -0.000000 62.088739
LeftHandThumb1 -26.253704 0.000000 33.147579
RightShoulder -9.949868 -7.257032 -19.704094
RightArm 113.752328 39.164073 149.644451
RightForeArm 48.652193 -0.000000 62.860893
RightHand -0.693383 -0.000000 25.369110
RightHandThumb1 -24.326973 -0.000000 -32.862282
LeftUpLeg -41.853463 37.192099 28.149195
LeftLeg 14.470659 -0.000000 -0.000000
LeftFoot 1.172133 35.964302 17.615378
LeftToeBase 0.181764 -0.000000 -0.000000
RightUpLeg -182.632621 -39.237518 56.880315
RightLeg -7.088878 -0.000000 0.000000
RightFoot 29.039156 -23.591040 18.815403
RightToeBase 33.653460 -0.000000 -0.000000
667
root 2.257243 34.897267 -5.299935 54.841594 -8.789099 -49.169954
Spine -47.863603 30.641107 10.346336
Head -1.579992 -2.314753 21.709309
LeftShoulder -19.162918 16.228944 40.244285
LeftArm 45.575920 -78.822003 3.512187
LeftForeArm 99.606890 -0.000000 12.259428
LeftHand -16.276196 -0.000000 62.106537
LeftHandThumb1 -26.253704 0.000000 33.147579
RightShoulder -9.970499 -7.136971 -19.706669
RightArm 113.550206 39.122092 149.496479
RightForeArm 48.631568 -0.000000 62.799552
RightHand -0.591519 -0.000000 25.270069
RightHandThumb1 -24.326973 -0.000000 -32.862282
LeftUpLeg -41.764266 37.239692 28.347139
LeftLeg 14.409587 -0.000000 -0.000000
LeftFoot 1.147274 36.134074 17.604516
LeftToeBase 0.358736 -0.000000 -0.000000
RightUpLeg -182.633244 -39.219979 56.858474
RightLeg -7.025523 -0.000000 0.000000
RightFoot 29.030210 -23.683402 18.742595
RightToeBase 33.618695 -0.000000 -0.000000
668
root 2.228426 34.893201 -5.326710 55.044239 -8.900662 -49.323882
Spine -47.820529 30.638221 10.410577
Head -1.592769 -2.059423 22.199657
LeftShoulder -19.241622 16.033565 40.335878
LeftArm 46.690610 -78.902536 2.541810
LeftForeArm 99.584912 -0.000000 12.401688
LeftHand -16.174429 0.000000 61.920580
LeftHandThumb1 -26.253704 0.000000 33.147579
RightShoulder -9.981412 -7.047329 -19.732001
RightArm 113.370583 39.029978 149.421910
RightForeArm 48.638692 -0.000000 62.752221
RightHand -0.556510 -0.000000 25.231615
RightHandThumb1 -24.326973 -0.000000 -32.862282
LeftUpLeg -41.705691 37.338727 28.543429
LeftLeg 14.388396 -0.000000 -0.000000
LeftFoot 1.076494 36.308153 17.496171
LeftToeBase 0.527188 -0.000000 -0.000000
RightUpLeg -182.545315 -39.105287 56.757600
RightLeg -7.014297 -0.000000 0.000000
RightFoot 29.088985 -23.750936 18.385342
RightToeBase 33.597363 -0.000000 -0.000000
669
root 2.199582 34.887536 -5.357177 55.227792 -8.995491 -49.386925
Spine -47.782975 30.579653 10.413208
Head -1.648298 -1.816804 22.670661
LeftShoulder -19.184057 15.840403 40.449709
LeftArm 46.756706 -78.952900 2.593779
LeftForeArm 99.620110 0.000000 12.451743
LeftHand -16.243190 -0.000000 62.000287
LeftHandThumb1 -26.253704 0.000000 33.147579
RightShoulder -10.025859 -7.018084 -19.768657
RightArm 113.203831 38.888235 149.377835
RightForeArm 48.620338 -0.000000 62.750698
RightHand -0.496832 -0.000000 25.142447
RightHandThumb1 -24.326973 -0.000000 -32.862282
LeftUpLeg -41.705743 37.323464 28.697855
LeftLeg 14.411815 -0.000000 -0.000000
LeftFoot 1.055179 36.513357 17.423610
LeftToeBase 0.671766 -0.000000 -0.000000
RightUpLeg -182.575209 -39.015318 56.698025
RightLeg -6.989754 -0.000000 0.000000
RightFoot 29.082593 -23.764541 18.377702
RightToeBase 33.588249 -0.000000 -0.000000
670
root 2.170215 34.882113 -5.388584 55.426334 -9.110591 -49.453040
Spine -47.737231 30.524193 10.423564
Head -1.702354 -1.570209 23.073671
LeftShoulder -19.160161 15.757468 40.569080
LeftArm 47.480082 -79.162972 1.817917
LeftForeArm 99.600239 -0.000000 12.734333
LeftHand -16.185484 0.000000 61.927459
LeftHandThumb1 -26.253704 0.000000 33.147579
RightShoulder -10.053089 -7.007820 -19.820139
RightArm 113.061384 38.725520 149.384081
RightForeArm 48.788528 -0.000000 62.737943
RightHand -0.581870 -0.000000 25.340609
RightHandThumb1 -24.326973 -0.000000 -32.862282
LeftUpLeg -41.723172 37.333816 28.821065
LeftLeg 14.440841 -0.000000 -0.000000
LeftFoot 0.969213 36.724587 17.277448
LeftToeBase 0.888834 -0.000000 -0.000000
RightUpLeg -182.587426 -38.939907 56.621493
RightLeg -6.998115 -0.000000 0.000000
RightFoot 29.148321 -23.753760 18.325847
RightToeBase 33.432684 -0.000000 -0.000000
671
root 2.140214 34.874723 -5.421939 55.597026 -9.218774 -49.479218
Spine -47.666416 30.435023 10.437346
Head -1.739035 -1.313161 23.453046
LeftShoulder -19.089046 15.751509 40.638948
LeftArm 47.257747 -79.360201 2.104913
LeftForeArm 100.060848 -0.000000 12.732764
LeftHand -16.567769 -0.000000 62.166391
LeftHandThumb1 -26.253704 0.000000 33.147579
RightShoulder -10.081667 -7.092210 -19.865439
RightArm 112.939628 38.503564 149.351652
RightForeArm 48.720732 -0.000000 62.787596
RightHand -0.591941 -0.000000 25.269562
RightHandThumb1 -24.326973 -0.000000 -32.862282
LeftUpLeg -41.814589 37.395101 28.834202
LeftLeg 14.491778 -0.000000 -0.000000
LeftFoot 0.866156 36.878470 17.166749
LeftToeBase 1.081970 -0.000000 -0.000000
RightUpLeg -182.646506 -38.978847 56.560774
RightLeg -6.979989 -0.000000 0.000000
RightFoot 29.009532 -23.693567 18.553495
RightToeBase 33.373858 -0.000000 -0.000000
672
root 2.115202 34.866444 -5.455560 55.756682 -9.383187 -49.523531
Spine -47.580027 30.404290 10.432530
Head -1.731290 -1.022733 23.810747
LeftShoulder -19.004994 15.720880 40.698638
LeftArm 47.365588 -79.518356 2.114197
LeftForeArm 100.526350 0.000000 12.698423
LeftHand -17.204886 -0.000000 62.432274
LeftHandThumb1 -26.253704 0.000000 33.147579
RightShoulder -10.063633 -7.084556 -19.901108
RightArm 112.807289 38.400407 149.272350
RightForeArm 48.623316 -0.000000 62.883214
RightHand -0.579225 -0.000000 25.220749
RightHandThumb1 -24.326973 -0.000000 -32.862282
LeftUpLeg -41.896145 37.540272 28.771517
LeftLeg 14.531631 -0.000000 -0.000000
LeftFoot 0.803115 37.007017 17.176453
LeftToeBase 1.270871 -0.000000 -0.000000
RightUpLeg -182.596217 -39.032720 56.408303
RightLeg -7.037308 -0.000000 0.000000
RightFoot 28.879922 -23.676680 18.764880
RightToeBase 33.303229 -0.000000 -0.000000
673
root 2.089393 34.855484 -5.489386 55.925887 -9.558289 -49.602526
Spine -47.476105 30.442004 10.434708
Head -1.775920 -0.771993 24.110011
LeftShoulder -18.966788 15.633796 40.773330
LeftArm 48.099464 -79.641344 1.405848
LeftForeArm 100.668577 -0.000000 12.805561
LeftHand -17.340675 -0.000000 62.546294
LeftHandThumb1 -26.253704 0.000000 33.147579
RightShoulder -10.089884 -7.066523 -19.952477
RightArm 112.684783 38.285153 149.217009
RightForeArm 48.528742 -0.000000 63.008991
RightHand -0.656364 -0.000000 25.276673
RightHandThumb1 -24.326973 -0.000000 -32.862282
LeftUpLeg -41.967845 37.750616 28.711618
LeftLeg 14.568549 -0.000000 -0.000000
LeftFoot 0.686402 37.115389 17.224718
LeftToeBase 1.519208 -0.000000 -0.000000
RightUpLeg -182.491578 -39.062058 56.231475
RightLeg -7.122288 -0.000000 0.000000
RightFoot 28.855948 -23.645764 18.759672
RightToeBase 33.121674 -0.000000 -0.000000
